<mxfile modified="2021-07-04T21:12:51.818Z" host="app.diagrams.net" agent="5.0 (Macintosh; Intel Mac OS X 10_15_7) AppleWebKit/605.1.15 (KHTML, like Gecko) Version/14.1.1 Safari/605.1.15" etag="pi17YTTIUgN6uV6ayM36" version="14.8.4" type="github">
  <diagram id="l8hXMBHkgcEJcSW0mbfh" name="Page-1">
    <mxGraphModel dx="1660" dy="1456" grid="1" gridSize="10" guides="1" tooltips="1" connect="1" arrows="1" fold="1" page="1" pageScale="1" pageWidth="1169" pageHeight="827" math="0" shadow="0">
      <root>
        <mxCell id="0" />
        <mxCell id="1" parent="0" />
        <mxCell id="C4WJExBouTizfqhgj9jg-47" style="edgeStyle=orthogonalEdgeStyle;shape=link;rounded=0;orthogonalLoop=1;jettySize=auto;html=1;" edge="1" parent="1" source="C4WJExBouTizfqhgj9jg-1" target="C4WJExBouTizfqhgj9jg-3">
          <mxGeometry relative="1" as="geometry" />
        </mxCell>
        <mxCell id="C4WJExBouTizfqhgj9jg-1" value="" style="verticalLabelPosition=bottom;aspect=fixed;html=1;verticalAlign=top;strokeColor=none;align=center;outlineConnect=0;shape=mxgraph.citrix.cloud;" vertex="1" parent="1">
          <mxGeometry x="218.63" y="60" width="107.26" height="70" as="geometry" />
        </mxCell>
        <mxCell id="C4WJExBouTizfqhgj9jg-48" style="edgeStyle=orthogonalEdgeStyle;shape=link;rounded=0;orthogonalLoop=1;jettySize=auto;html=1;" edge="1" parent="1" source="C4WJExBouTizfqhgj9jg-2">
          <mxGeometry relative="1" as="geometry">
            <mxPoint x="650" y="95" as="targetPoint" />
          </mxGeometry>
        </mxCell>
        <mxCell id="C4WJExBouTizfqhgj9jg-2" value="" style="verticalLabelPosition=bottom;aspect=fixed;html=1;verticalAlign=top;strokeColor=none;align=center;outlineConnect=0;shape=mxgraph.citrix.reporting;" vertex="1" parent="1">
          <mxGeometry x="947.5" y="37.5" width="102.5" height="115" as="geometry" />
        </mxCell>
        <mxCell id="C4WJExBouTizfqhgj9jg-3" value="" style="verticalLabelPosition=bottom;aspect=fixed;html=1;verticalAlign=top;strokeColor=none;align=center;outlineConnect=0;shape=mxgraph.citrix.chassis;" vertex="1" parent="1">
          <mxGeometry x="557.5" y="40" width="85.21" height="110" as="geometry" />
        </mxCell>
        <mxCell id="C4WJExBouTizfqhgj9jg-49" style="edgeStyle=orthogonalEdgeStyle;shape=link;rounded=0;orthogonalLoop=1;jettySize=auto;html=1;entryX=0.704;entryY=1;entryDx=0;entryDy=0;entryPerimeter=0;" edge="1" parent="1" source="C4WJExBouTizfqhgj9jg-5" target="C4WJExBouTizfqhgj9jg-3">
          <mxGeometry relative="1" as="geometry" />
        </mxCell>
        <mxCell id="C4WJExBouTizfqhgj9jg-50" style="edgeStyle=orthogonalEdgeStyle;shape=link;rounded=0;orthogonalLoop=1;jettySize=auto;html=1;" edge="1" parent="1" source="C4WJExBouTizfqhgj9jg-5" target="C4WJExBouTizfqhgj9jg-13">
          <mxGeometry relative="1" as="geometry" />
        </mxCell>
        <mxCell id="C4WJExBouTizfqhgj9jg-51" style="edgeStyle=orthogonalEdgeStyle;shape=link;rounded=0;orthogonalLoop=1;jettySize=auto;html=1;" edge="1" parent="1" source="C4WJExBouTizfqhgj9jg-5" target="C4WJExBouTizfqhgj9jg-15">
          <mxGeometry relative="1" as="geometry" />
        </mxCell>
        <mxCell id="C4WJExBouTizfqhgj9jg-5" value="" style="image;html=1;image=img/lib/clip_art/networking/Switch_128x128.png" vertex="1" parent="1">
          <mxGeometry x="547.5" y="270" width="140" height="60" as="geometry" />
        </mxCell>
        <mxCell id="C4WJExBouTizfqhgj9jg-6" value="" style="shape=image;html=1;verticalAlign=top;verticalLabelPosition=bottom;labelBackgroundColor=#ffffff;imageAspect=0;aspect=fixed;image=https://cdn4.iconfinder.com/data/icons/flat-brand-logo-2/512/ge-128.png" vertex="1" parent="1">
          <mxGeometry x="241.13" y="407.5" width="50" height="50" as="geometry" />
        </mxCell>
        <mxCell id="C4WJExBouTizfqhgj9jg-9" value="" style="outlineConnect=0;fontColor=#232F3E;gradientColor=none;fillColor=#277116;strokeColor=none;dashed=0;verticalLabelPosition=bottom;verticalAlign=top;align=center;html=1;fontSize=12;fontStyle=0;aspect=fixed;pointerEvents=1;shape=mxgraph.aws4.alexa_skill;" vertex="1" parent="1">
          <mxGeometry x="218.63" y="385" width="95" height="95" as="geometry" />
        </mxCell>
        <mxCell id="C4WJExBouTizfqhgj9jg-11" value="" style="aspect=fixed;html=1;points=[];align=center;image;fontSize=12;image=img/lib/mscae/Monitor.svg;" vertex="1" parent="1">
          <mxGeometry x="90" y="690" width="50" height="50" as="geometry" />
        </mxCell>
        <mxCell id="C4WJExBouTizfqhgj9jg-12" value="" style="shape=image;html=1;verticalAlign=top;verticalLabelPosition=bottom;labelBackgroundColor=#ffffff;imageAspect=0;aspect=fixed;image=https://cdn4.iconfinder.com/data/icons/flat-brand-logo-2/512/ge-128.png" vertex="1" parent="1">
          <mxGeometry x="381.13" y="407.5" width="50" height="50" as="geometry" />
        </mxCell>
        <mxCell id="C4WJExBouTizfqhgj9jg-44" value="" style="edgeStyle=orthogonalEdgeStyle;rounded=0;orthogonalLoop=1;jettySize=auto;html=1;shape=link;" edge="1" parent="1" source="C4WJExBouTizfqhgj9jg-13" target="C4WJExBouTizfqhgj9jg-9">
          <mxGeometry relative="1" as="geometry" />
        </mxCell>
        <mxCell id="C4WJExBouTizfqhgj9jg-13" value="" style="outlineConnect=0;fontColor=#232F3E;gradientColor=none;fillColor=#277116;strokeColor=none;dashed=0;verticalLabelPosition=bottom;verticalAlign=top;align=center;html=1;fontSize=12;fontStyle=0;aspect=fixed;pointerEvents=1;shape=mxgraph.aws4.alexa_skill;" vertex="1" parent="1">
          <mxGeometry x="358.63" y="385" width="95" height="95" as="geometry" />
        </mxCell>
        <mxCell id="C4WJExBouTizfqhgj9jg-14" value="" style="shape=image;html=1;verticalAlign=top;verticalLabelPosition=bottom;labelBackgroundColor=#ffffff;imageAspect=0;aspect=fixed;image=https://cdn4.iconfinder.com/data/icons/flat-brand-logo-2/512/ge-128.png" vertex="1" parent="1">
          <mxGeometry x="766.13" y="407.5" width="50" height="50" as="geometry" />
        </mxCell>
        <mxCell id="C4WJExBouTizfqhgj9jg-15" value="" style="outlineConnect=0;fontColor=#232F3E;gradientColor=none;fillColor=#277116;strokeColor=none;dashed=0;verticalLabelPosition=bottom;verticalAlign=top;align=center;html=1;fontSize=12;fontStyle=0;aspect=fixed;pointerEvents=1;shape=mxgraph.aws4.alexa_skill;" vertex="1" parent="1">
          <mxGeometry x="743.63" y="385" width="95" height="95" as="geometry" />
        </mxCell>
        <mxCell id="C4WJExBouTizfqhgj9jg-16" value="" style="shape=image;html=1;verticalAlign=top;verticalLabelPosition=bottom;labelBackgroundColor=#ffffff;imageAspect=0;aspect=fixed;image=https://cdn4.iconfinder.com/data/icons/flat-brand-logo-2/512/ge-128.png" vertex="1" parent="1">
          <mxGeometry x="906.13" y="407.5" width="50" height="50" as="geometry" />
        </mxCell>
        <mxCell id="C4WJExBouTizfqhgj9jg-17" value="" style="outlineConnect=0;fontColor=#232F3E;gradientColor=none;fillColor=#277116;strokeColor=none;dashed=0;verticalLabelPosition=bottom;verticalAlign=top;align=center;html=1;fontSize=12;fontStyle=0;aspect=fixed;pointerEvents=1;shape=mxgraph.aws4.alexa_skill;" vertex="1" parent="1">
          <mxGeometry x="883.63" y="385" width="95" height="95" as="geometry" />
        </mxCell>
        <mxCell id="C4WJExBouTizfqhgj9jg-63" value="" style="edgeStyle=orthogonalEdgeStyle;shape=link;rounded=0;orthogonalLoop=1;jettySize=auto;html=1;" edge="1" parent="1" source="C4WJExBouTizfqhgj9jg-18" target="C4WJExBouTizfqhgj9jg-19">
          <mxGeometry relative="1" as="geometry" />
        </mxCell>
        <mxCell id="C4WJExBouTizfqhgj9jg-64" value="" style="edgeStyle=orthogonalEdgeStyle;shape=link;rounded=0;orthogonalLoop=1;jettySize=auto;html=1;" edge="1" parent="1" source="C4WJExBouTizfqhgj9jg-18" target="C4WJExBouTizfqhgj9jg-11">
          <mxGeometry relative="1" as="geometry" />
        </mxCell>
        <mxCell id="C4WJExBouTizfqhgj9jg-18" value="" style="aspect=fixed;html=1;points=[];align=center;image;fontSize=12;image=img/lib/mscae/Monitor.svg;" vertex="1" parent="1">
          <mxGeometry x="158.63" y="690" width="50" height="50" as="geometry" />
        </mxCell>
        <mxCell id="C4WJExBouTizfqhgj9jg-62" value="" style="edgeStyle=orthogonalEdgeStyle;shape=link;rounded=0;orthogonalLoop=1;jettySize=auto;html=1;" edge="1" parent="1" source="C4WJExBouTizfqhgj9jg-19" target="C4WJExBouTizfqhgj9jg-21">
          <mxGeometry relative="1" as="geometry" />
        </mxCell>
        <mxCell id="C4WJExBouTizfqhgj9jg-19" value="" style="aspect=fixed;html=1;points=[];align=center;image;fontSize=12;image=img/lib/mscae/Monitor.svg;" vertex="1" parent="1">
          <mxGeometry x="230" y="690" width="50" height="50" as="geometry" />
        </mxCell>
        <mxCell id="C4WJExBouTizfqhgj9jg-21" value="" style="aspect=fixed;html=1;points=[];align=center;image;fontSize=12;image=img/lib/mscae/Monitor.svg;" vertex="1" parent="1">
          <mxGeometry x="380" y="690" width="50" height="50" as="geometry" />
        </mxCell>
        <mxCell id="C4WJExBouTizfqhgj9jg-60" value="" style="edgeStyle=orthogonalEdgeStyle;shape=link;rounded=0;orthogonalLoop=1;jettySize=auto;html=1;" edge="1" parent="1" source="C4WJExBouTizfqhgj9jg-22" target="C4WJExBouTizfqhgj9jg-21">
          <mxGeometry relative="1" as="geometry" />
        </mxCell>
        <mxCell id="C4WJExBouTizfqhgj9jg-61" value="" style="edgeStyle=orthogonalEdgeStyle;shape=link;rounded=0;orthogonalLoop=1;jettySize=auto;html=1;" edge="1" parent="1" source="C4WJExBouTizfqhgj9jg-22" target="C4WJExBouTizfqhgj9jg-23">
          <mxGeometry relative="1" as="geometry" />
        </mxCell>
        <mxCell id="C4WJExBouTizfqhgj9jg-22" value="" style="aspect=fixed;html=1;points=[];align=center;image;fontSize=12;image=img/lib/mscae/Monitor.svg;" vertex="1" parent="1">
          <mxGeometry x="448.63" y="690" width="50" height="50" as="geometry" />
        </mxCell>
        <mxCell id="C4WJExBouTizfqhgj9jg-23" value="" style="aspect=fixed;html=1;points=[];align=center;image;fontSize=12;image=img/lib/mscae/Monitor.svg;" vertex="1" parent="1">
          <mxGeometry x="520" y="690" width="50" height="50" as="geometry" />
        </mxCell>
        <mxCell id="C4WJExBouTizfqhgj9jg-58" value="" style="edgeStyle=orthogonalEdgeStyle;shape=link;rounded=0;orthogonalLoop=1;jettySize=auto;html=1;" edge="1" parent="1" source="C4WJExBouTizfqhgj9jg-24" target="C4WJExBouTizfqhgj9jg-26">
          <mxGeometry relative="1" as="geometry" />
        </mxCell>
        <mxCell id="C4WJExBouTizfqhgj9jg-24" value="" style="aspect=fixed;html=1;points=[];align=center;image;fontSize=12;image=img/lib/mscae/Monitor.svg;" vertex="1" parent="1">
          <mxGeometry x="100" y="570" width="50" height="50" as="geometry" />
        </mxCell>
        <mxCell id="C4WJExBouTizfqhgj9jg-25" value="" style="aspect=fixed;html=1;points=[];align=center;image;fontSize=12;image=img/lib/mscae/Monitor.svg;" vertex="1" parent="1">
          <mxGeometry x="168.63" y="570" width="50" height="50" as="geometry" />
        </mxCell>
        <mxCell id="C4WJExBouTizfqhgj9jg-57" value="" style="edgeStyle=orthogonalEdgeStyle;shape=link;rounded=0;orthogonalLoop=1;jettySize=auto;html=1;" edge="1" parent="1" source="C4WJExBouTizfqhgj9jg-26" target="C4WJExBouTizfqhgj9jg-25">
          <mxGeometry relative="1" as="geometry" />
        </mxCell>
        <mxCell id="C4WJExBouTizfqhgj9jg-26" value="" style="aspect=fixed;html=1;points=[];align=center;image;fontSize=12;image=img/lib/mscae/Monitor.svg;" vertex="1" parent="1">
          <mxGeometry x="240" y="570" width="50" height="50" as="geometry" />
        </mxCell>
        <mxCell id="C4WJExBouTizfqhgj9jg-52" style="edgeStyle=orthogonalEdgeStyle;shape=link;rounded=0;orthogonalLoop=1;jettySize=auto;html=1;" edge="1" parent="1">
          <mxGeometry relative="1" as="geometry">
            <mxPoint x="340" y="430" as="targetPoint" />
            <mxPoint x="340" y="713" as="sourcePoint" />
            <Array as="points">
              <mxPoint x="340" y="713" />
            </Array>
          </mxGeometry>
        </mxCell>
        <mxCell id="C4WJExBouTizfqhgj9jg-56" style="edgeStyle=orthogonalEdgeStyle;shape=link;rounded=0;orthogonalLoop=1;jettySize=auto;html=1;" edge="1" parent="1" source="C4WJExBouTizfqhgj9jg-27" target="C4WJExBouTizfqhgj9jg-26">
          <mxGeometry relative="1" as="geometry" />
        </mxCell>
        <mxCell id="C4WJExBouTizfqhgj9jg-59" value="" style="edgeStyle=orthogonalEdgeStyle;shape=link;rounded=0;orthogonalLoop=1;jettySize=auto;html=1;" edge="1" parent="1" source="C4WJExBouTizfqhgj9jg-27" target="C4WJExBouTizfqhgj9jg-29">
          <mxGeometry relative="1" as="geometry" />
        </mxCell>
        <mxCell id="C4WJExBouTizfqhgj9jg-27" value="" style="aspect=fixed;html=1;points=[];align=center;image;fontSize=12;image=img/lib/mscae/Monitor.svg;" vertex="1" parent="1">
          <mxGeometry x="380" y="570" width="50" height="50" as="geometry" />
        </mxCell>
        <mxCell id="C4WJExBouTizfqhgj9jg-28" value="" style="aspect=fixed;html=1;points=[];align=center;image;fontSize=12;image=img/lib/mscae/Monitor.svg;" vertex="1" parent="1">
          <mxGeometry x="448.6299999999999" y="570" width="50" height="50" as="geometry" />
        </mxCell>
        <mxCell id="C4WJExBouTizfqhgj9jg-29" value="" style="aspect=fixed;html=1;points=[];align=center;image;fontSize=12;image=img/lib/mscae/Monitor.svg;" vertex="1" parent="1">
          <mxGeometry x="520" y="570" width="50" height="50" as="geometry" />
        </mxCell>
        <mxCell id="C4WJExBouTizfqhgj9jg-30" value="" style="aspect=fixed;html=1;points=[];align=center;image;fontSize=12;image=img/lib/mscae/Monitor.svg;" vertex="1" parent="1">
          <mxGeometry x="620" y="570" width="50" height="50" as="geometry" />
        </mxCell>
        <mxCell id="C4WJExBouTizfqhgj9jg-68" value="" style="edgeStyle=orthogonalEdgeStyle;shape=link;rounded=0;orthogonalLoop=1;jettySize=auto;html=1;" edge="1" parent="1" source="C4WJExBouTizfqhgj9jg-31" target="C4WJExBouTizfqhgj9jg-30">
          <mxGeometry relative="1" as="geometry" />
        </mxCell>
        <mxCell id="C4WJExBouTizfqhgj9jg-31" value="" style="aspect=fixed;html=1;points=[];align=center;image;fontSize=12;image=img/lib/mscae/Monitor.svg;" vertex="1" parent="1">
          <mxGeometry x="688.63" y="570" width="50" height="50" as="geometry" />
        </mxCell>
        <mxCell id="C4WJExBouTizfqhgj9jg-67" value="" style="edgeStyle=orthogonalEdgeStyle;shape=link;rounded=0;orthogonalLoop=1;jettySize=auto;html=1;" edge="1" parent="1" source="C4WJExBouTizfqhgj9jg-32" target="C4WJExBouTizfqhgj9jg-31">
          <mxGeometry relative="1" as="geometry" />
        </mxCell>
        <mxCell id="C4WJExBouTizfqhgj9jg-32" value="" style="aspect=fixed;html=1;points=[];align=center;image;fontSize=12;image=img/lib/mscae/Monitor.svg;" vertex="1" parent="1">
          <mxGeometry x="760" y="570" width="50" height="50" as="geometry" />
        </mxCell>
        <mxCell id="C4WJExBouTizfqhgj9jg-33" value="" style="aspect=fixed;html=1;points=[];align=center;image;fontSize=12;image=img/lib/mscae/Monitor.svg;" vertex="1" parent="1">
          <mxGeometry x="620" y="690" width="50" height="50" as="geometry" />
        </mxCell>
        <mxCell id="C4WJExBouTizfqhgj9jg-69" value="" style="edgeStyle=orthogonalEdgeStyle;shape=link;rounded=0;orthogonalLoop=1;jettySize=auto;html=1;" edge="1" parent="1" source="C4WJExBouTizfqhgj9jg-34" target="C4WJExBouTizfqhgj9jg-33">
          <mxGeometry relative="1" as="geometry" />
        </mxCell>
        <mxCell id="C4WJExBouTizfqhgj9jg-70" value="" style="edgeStyle=orthogonalEdgeStyle;shape=link;rounded=0;orthogonalLoop=1;jettySize=auto;html=1;" edge="1" parent="1" source="C4WJExBouTizfqhgj9jg-34" target="C4WJExBouTizfqhgj9jg-35">
          <mxGeometry relative="1" as="geometry" />
        </mxCell>
        <mxCell id="C4WJExBouTizfqhgj9jg-34" value="" style="aspect=fixed;html=1;points=[];align=center;image;fontSize=12;image=img/lib/mscae/Monitor.svg;" vertex="1" parent="1">
          <mxGeometry x="688.63" y="690" width="50" height="50" as="geometry" />
        </mxCell>
        <mxCell id="C4WJExBouTizfqhgj9jg-71" value="" style="edgeStyle=orthogonalEdgeStyle;shape=link;rounded=0;orthogonalLoop=1;jettySize=auto;html=1;" edge="1" parent="1" source="C4WJExBouTizfqhgj9jg-35" target="C4WJExBouTizfqhgj9jg-39">
          <mxGeometry relative="1" as="geometry" />
        </mxCell>
        <mxCell id="C4WJExBouTizfqhgj9jg-35" value="" style="aspect=fixed;html=1;points=[];align=center;image;fontSize=12;image=img/lib/mscae/Monitor.svg;" vertex="1" parent="1">
          <mxGeometry x="760" y="690" width="50" height="50" as="geometry" />
        </mxCell>
        <mxCell id="C4WJExBouTizfqhgj9jg-55" value="" style="edgeStyle=orthogonalEdgeStyle;shape=link;rounded=0;orthogonalLoop=1;jettySize=auto;html=1;" edge="1" parent="1" source="C4WJExBouTizfqhgj9jg-36" target="C4WJExBouTizfqhgj9jg-32">
          <mxGeometry relative="1" as="geometry" />
        </mxCell>
        <mxCell id="C4WJExBouTizfqhgj9jg-66" value="" style="edgeStyle=orthogonalEdgeStyle;shape=link;rounded=0;orthogonalLoop=1;jettySize=auto;html=1;" edge="1" parent="1" source="C4WJExBouTizfqhgj9jg-36" target="C4WJExBouTizfqhgj9jg-38">
          <mxGeometry relative="1" as="geometry" />
        </mxCell>
        <mxCell id="C4WJExBouTizfqhgj9jg-36" value="" style="aspect=fixed;html=1;points=[];align=center;image;fontSize=12;image=img/lib/mscae/Monitor.svg;" vertex="1" parent="1">
          <mxGeometry x="910" y="570" width="50" height="50" as="geometry" />
        </mxCell>
        <mxCell id="C4WJExBouTizfqhgj9jg-37" value="" style="aspect=fixed;html=1;points=[];align=center;image;fontSize=12;image=img/lib/mscae/Monitor.svg;" vertex="1" parent="1">
          <mxGeometry x="978.63" y="570" width="50" height="50" as="geometry" />
        </mxCell>
        <mxCell id="C4WJExBouTizfqhgj9jg-38" value="" style="aspect=fixed;html=1;points=[];align=center;image;fontSize=12;image=img/lib/mscae/Monitor.svg;" vertex="1" parent="1">
          <mxGeometry x="1050" y="570" width="50" height="50" as="geometry" />
        </mxCell>
        <mxCell id="C4WJExBouTizfqhgj9jg-65" value="" style="edgeStyle=orthogonalEdgeStyle;shape=link;rounded=0;orthogonalLoop=1;jettySize=auto;html=1;" edge="1" parent="1" source="C4WJExBouTizfqhgj9jg-39" target="C4WJExBouTizfqhgj9jg-41">
          <mxGeometry relative="1" as="geometry" />
        </mxCell>
        <mxCell id="C4WJExBouTizfqhgj9jg-39" value="" style="aspect=fixed;html=1;points=[];align=center;image;fontSize=12;image=img/lib/mscae/Monitor.svg;" vertex="1" parent="1">
          <mxGeometry x="910" y="690" width="50" height="50" as="geometry" />
        </mxCell>
        <mxCell id="C4WJExBouTizfqhgj9jg-40" value="" style="aspect=fixed;html=1;points=[];align=center;image;fontSize=12;image=img/lib/mscae/Monitor.svg;" vertex="1" parent="1">
          <mxGeometry x="978.63" y="690" width="50" height="50" as="geometry" />
        </mxCell>
        <mxCell id="C4WJExBouTizfqhgj9jg-41" value="" style="aspect=fixed;html=1;points=[];align=center;image;fontSize=12;image=img/lib/mscae/Monitor.svg;" vertex="1" parent="1">
          <mxGeometry x="1050" y="690" width="50" height="50" as="geometry" />
        </mxCell>
        <mxCell id="C4WJExBouTizfqhgj9jg-53" value="" style="edgeStyle=orthogonalEdgeStyle;rounded=0;orthogonalLoop=1;jettySize=auto;html=1;shape=link;" edge="1" parent="1">
          <mxGeometry relative="1" as="geometry">
            <mxPoint x="884.8778750511666" y="432.5" as="sourcePoint" />
            <mxPoint x="839.6421249488336" y="432.5" as="targetPoint" />
          </mxGeometry>
        </mxCell>
        <mxCell id="C4WJExBouTizfqhgj9jg-54" style="edgeStyle=orthogonalEdgeStyle;shape=link;rounded=0;orthogonalLoop=1;jettySize=auto;html=1;" edge="1" parent="1">
          <mxGeometry relative="1" as="geometry">
            <mxPoint x="866.13" y="430" as="targetPoint" />
            <mxPoint x="866" y="720" as="sourcePoint" />
            <Array as="points">
              <mxPoint x="866.13" y="595" />
            </Array>
          </mxGeometry>
        </mxCell>
      </root>
    </mxGraphModel>
  </diagram>
</mxfile>
